<svg xmlns="http://www.w3.org/2000/svg" width="920" height="920"><path d="M16.858 889.095c-.087 2.409-.516 4.302-1.284 5.679-.769 1.378-1.937 2.387-3.503 3.024l1.915 3.09c2.639-1.189 4.583-2.959 5.831-5.309.899-1.711 1.349-4.511 1.349-8.399v-7.18h-8.399v9.095h4.091zm-12.071 0c-.087 2.409-.516 4.302-1.284 5.679-.769 1.378-1.937 2.387-3.503 3.024l1.915 3.09c2.639-1.189 4.583-2.959 5.831-5.309.899-1.711 1.349-4.511 1.349-8.399v-7.18h-8.399v9.095h4.091zM15.5 812.167"/><path d="M57.495 855c0-.24-.12-.511-.3-.691l-14.009-14.009c-.18-.18-.451-.3-.691-.3s-.511.12-.691.3l-1.503 1.503c-.18.18-.3.451-.3.691 0 .24.12.511.3.691l11.813 11.815-11.814 11.814c-.18.18-.3.451-.3.691 0 .271.12.511.3.691l1.503 1.503c.18.18.451.3.691.3s.511-.12.691-.3l14.009-14.009c.181-.179.301-.45.301-.69zM80 815c0 .24.12.511.3.691l14.009 14.009c.18.18.451.3.691.3s.511-.12.691-.3l1.503-1.503c.18-.18.3-.451.3-.691 0-.24-.12-.511-.3-.691l-11.813-11.815 11.814-11.814c.18-.18.3-.451.3-.691 0-.271-.12-.511-.3-.691l-1.503-1.503c-.18-.18-.451-.3-.691-.3s-.511.12-.691.3l-14.01 14.008c-.18.18-.3.451-.3.691zM125.248 764.5c0-.072-.036-.153-.09-.207l-4.203-4.203c-.054-.054-.135-.09-.207-.09-.072 0-.153.036-.207.09l-.451.451c-.054.054-.09.135-.09.207s.036.153.09.207l3.544 3.544-3.544 3.544c-.054.054-.09.135-.09.207 0 .081.036.153.09.207l.451.451c.054.054.135.09.207.09.072 0 .153-.036.207-.09l4.203-4.203c.054-.052.09-.133.09-.205z"/><path fill="#fff" d="M280 615c0 .24.12.511.3.691l14.009 14.009c.18.18.451.3.691.3.24 0 .511-.12.691-.3l1.503-1.503c.18-.18.3-.451.3-.691 0-.24-.12-.511-.3-.691l-11.813-11.815 11.814-11.814c.18-.18.3-.451.3-.691 0-.271-.12-.511-.3-.691l-1.503-1.503c-.18-.18-.451-.3-.691-.3-.24 0-.511.12-.691.3l-14.01 14.008c-.18.18-.3.451-.3.691zM257.495 655c0-.24-.12-.511-.3-.691l-14.009-14.009c-.18-.18-.451-.3-.691-.3s-.511.12-.691.3l-1.503 1.503c-.18.18-.3.451-.3.691 0 .24.12.511.3.691l11.813 11.815-11.814 11.814c-.18.18-.3.451-.3.691 0 .271.12.511.3.691l1.503 1.503c.18.18.451.3.691.3s.511-.12.691-.3l14.009-14.009c.181-.179.301-.45.301-.69zM560 327.111c0 .486.403.889.889.889h12.444c.486 0 .889-.403.889-.889 0-.236-.097-.458-.264-.625l-6.222-6.222c-.167-.167-.389-.264-.625-.264s-.458.097-.625.264l-6.222 6.222c-.167.167-.264.389-.264.625zM534.222 360.889c0-.486-.403-.889-.889-.889h-12.444c-.486 0-.889.403-.889.889 0 .236.097.458.264.625l6.222 6.222c.167.167.389.264.625.264s.458-.097.625-.264l6.222-6.222c.167-.167.264-.389.264-.625zM480 404.444c0 .304.252.556.556.556h7.778c.304 0 .556-.252.556-.556 0-.148-.061-.286-.165-.391l-3.889-3.889c-.104-.104-.243-.165-.391-.165-.148 0-.286.061-.391.165l-3.889 3.889c-.104.105-.165.244-.165.391zM448.889 440.556c0-.304-.252-.556-.556-.556h-7.778c-.304 0-.556.252-.556.556 0 .148.061.286.165.391l3.889 3.889c.104.104.243.165.391.165.148 0 .286-.061.391-.165l3.889-3.889c.104-.105.165-.244.165-.391z"/><polyline points="200,680.707 211.839,692.546 212.546,691.839 200.707,680"/><polyline points="211.839,680 200,691.839 200.707,692.546 212.546,680.707"/><rect x="360" y="520" fill="#fff" width="12" height="2"/><polygon fill="#fff" points="412,485 407,485 407,480 405,480 405,485 400,485 400,487 405,487 405,492 407,492 407,487 412,487"/><path d="M609.401 287.75c1.176-.735 1.965-2.078 1.965-3.567 0-2.297-1.862-4.183-4.159-4.183-2.297 0-4.159 1.85-4.159 4.148 0 1.539.845 2.955 2.088 3.675-2.894.924-5.012 3.842-5.135 6.842h14.76c-.127-3.001-2.352-6.06-5.36-6.915z"/><polygon fill="#7DB800" points="640,240 640,250 647.369,240"/><polygon fill="#2F363A" points="680,200 680,239 706.458,200"/><path opacity=".2" d="M720 160v30h30v-30h-30zm15.993 20.358c-1.365 0-2.711-.413-3.836-1.192l-3.298 3.288c-.221.231-.539.365-.865.365-.673 0-1.231-.558-1.231-1.231 0-.327.135-.644.356-.865l3.298-3.298c-.779-1.125-1.192-2.471-1.192-3.837 0-3.74 3.029-6.769 6.769-6.769s6.769 3.029 6.769 6.769-3.029 6.77-6.77 6.77zM735.993 169.281c-2.375 0-4.308 1.933-4.308 4.308s1.933 4.308 4.308 4.308 4.308-1.933 4.308-4.308-1.933-4.308-4.308-4.308z"/><path fill="#fff" d="M735.993 166.82c-3.74 0-6.769 3.029-6.769 6.769 0 1.365.414 2.712 1.192 3.837l-3.298 3.298c-.221.221-.356.538-.356.865 0 .673.558 1.231 1.231 1.231.327 0 .644-.135.865-.365l3.298-3.288c1.125.779 2.471 1.192 3.836 1.192 3.74 0 6.769-3.029 6.769-6.769s-3.027-6.77-6.768-6.77zm0 11.076c-2.375 0-4.308-1.933-4.308-4.308s1.933-4.308 4.308-4.308 4.308 1.933 4.308 4.308-1.933 4.308-4.308 4.308zM781.084 131.375c-.109 3.012-.645 5.38-1.606 7.102-.962 1.724-2.422 2.985-4.381 3.782l2.395 3.864c3.301-1.487 5.732-3.701 7.293-6.64 1.124-2.14 1.687-5.641 1.687-10.504v-8.979h-10.504v11.375h5.116zm-15.097 0c-.109 3.012-.645 5.38-1.606 7.102-.962 1.724-2.422 2.985-4.381 3.782l2.395 3.864c3.301-1.487 5.732-3.701 7.293-6.64 1.124-2.14 1.687-5.641 1.687-10.504v-8.979h-10.504v11.375h5.116z"/><path d="M812.83 91c0-.176-.088-.375-.22-.507l-10.274-10.273c-.132-.132-.331-.22-.507-.22s-.375.088-.507.22l-1.103 1.103c-.132.132-.22.331-.22.507s.088.375.22.507l8.665 8.663-8.664 8.664c-.132.132-.22.331-.22.507 0 .199.088.375.22.507l1.103 1.103c.132.132.331.22.507.22s.375-.088.507-.22l10.273-10.273c.132-.133.22-.332.22-.508zM840 51c0 .176.088.375.22.507l10.273 10.273c.132.132.331.22.507.22s.375-.088.507-.22l1.103-1.103c.132-.132.22-.331.22-.507s-.088-.375-.22-.507l-8.664-8.663 8.664-8.664c.132-.132.22-.331.22-.507 0-.199-.088-.375-.22-.507l-1.103-1.103c-.132-.131-.331-.219-.507-.219s-.375.088-.507.22l-10.273 10.273c-.132.132-.22.331-.22.507z"/><path fill="#fff" d="M886.911.987c-3.209 0-5.924 1.805-5.924 3.949 0 1.149.771 2.244 2.106 3l.671.386-.208.74c-.147.548-.339.972-.54 1.327.779-.324 1.489-.764 2.121-1.319l.332-.293.44.046c.332.039.671.062 1.003.062 3.209 0 5.924-1.805 5.924-3.949s-2.716-3.949-5.925-3.949z"/><path fill="#555454" d="M886.911 0c-3.818 0-6.911 2.206-6.911 4.936 0 1.566 1.018 2.962 2.607 3.864-.363 1.288-.964 1.751-1.45 2.298-.116.139-.254.255-.254.447v.008c0 .17.269.114.423.114h.039c.301 0 .602-.003.879-.08 1.334-.339 2.538-.927 3.548-1.822.363.039.74.084 1.118.084 3.818 0 6.911-2.195 6.911-4.925.001-2.729-3.092-4.924-6.91-4.924zm0 8.885c-.332 0-.671-.023-1.003-.062l-.44-.046-.332.293c-.633.555-1.342.995-2.121 1.319.2-.355.393-.779.54-1.327l.208-.74-.671-.386c-1.334-.756-2.106-1.851-2.106-3 0-2.144 2.715-3.949 5.924-3.949 3.209 0 5.924 1.805 5.924 3.949s-2.714 3.949-5.923 3.949z"/><path fill="#D3D3D3" d="M166.385 721.26c.164-.164.383-.26.615-.26s.451.096.615.26l6.125 6.125.08.117c.105-.144.18-.312.18-.502 0-.232-.096-.451-.26-.615l-6.125-6.125c-.164-.164-.383-.26-.615-.26s-.451.096-.615.26l-6.125 6.125c-.164.164-.26.383-.26.615 0 .19.075.358.18.502l.08-.117 6.125-6.125z"/><path fill="#fff" d="M173.74 727.385l-6.125-6.125c-.164-.164-.383-.26-.615-.26s-.451.096-.615.26l-6.125 6.125-.08.117c-.107.147-.18.376-.18.561 0 .479.396.938.875.938h12.25c.479 0 .875-.459.875-.938 0-.184-.074-.383-.18-.529l-.08-.149zM320.875 560c-.479 0-.875.396-.875.875v12.25c0 .479.396.875.875.875.232 0 .451-.096.615-.26l6.125-6.125c.164-.164.26-.383.26-.615s-.096-.451-.26-.615l-6.125-6.125c-.164-.164-.383-.26-.615-.26z"/></svg>